<svg width="512" height="512" viewBox="0 0 26 34" fill="none" xmlns="http://www.w3.org/2000/svg">
  <mask id="path-1-inside-1_2581_4256" fill="white">
    <path
      d="M24.6734 31.3244H23.6755C23.3029 26.1593 20.5765 19.6182 16.7035 17C20.5793 14.381 23.2969 7.84147 23.6663 2.67566H24.6735C25.3206 2.67566 25.8447 2.15109 25.8447 1.5045C25.8447 0.857915 25.3206 0.333344 24.6735 0.333344H1.67116C1.02402 0.333344 0.5 0.857915 0.5 1.5045C0.5 2.15109 1.02402 2.67566 1.67116 2.67566H2.66583C3.0368 7.84077 5.76149 14.3813 9.63403 17C5.76149 19.6169 3.03635 26.1569 2.66527 31.3244H1.67169C1.02456 31.3244 0.500528 31.8489 0.500528 32.4955C0.500528 33.1421 1.02456 33.6667 1.67169 33.6667H24.674C25.3212 33.6667 25.8452 33.1421 25.8452 32.4955C25.8452 31.8489 25.3217 31.3244 24.674 31.3244H24.6734ZM5.01093 2.67427H21.328C21.1924 4.28939 20.7871 6.07226 20.183 7.79084H6.15569C5.55268 6.07226 5.14739 4.29036 5.01122 2.67427H5.01093ZM7.12067 10.1338H19.2186C18.0779 12.4907 16.5662 14.4774 14.8804 15.3654C14.8788 15.3659 14.8771 15.3676 14.8755 15.3686C14.7851 15.4139 13.0654 16.2244 11.4666 15.3686C11.465 15.3681 11.4644 15.3681 11.4634 15.3681C11.4601 15.3665 11.4574 15.3659 11.4541 15.3643C9.77092 14.4753 8.25984 12.4892 7.12081 10.1338L7.12067 10.1338ZM9.78655 31.3232L13.1873 28.6431L16.6158 31.3232H9.78655ZM20.4196 31.3232L13.9069 26.2316C13.4804 25.8988 12.8839 25.8999 12.4601 26.2338L5.99963 31.3232H5.01095C5.40696 26.6102 8.05655 20.4755 11.405 18.6643C11.7406 19.1437 12.0015 19.6622 12.0015 20.1111C12.0015 20.7577 12.5261 21.2823 13.1727 21.2823C13.8198 21.2823 14.3438 20.7577 14.3438 20.1111C14.3438 19.6192 14.5939 19.1066 14.9098 18.6501C18.2703 20.4487 20.9313 26.6015 21.3283 31.3237H20.4197L20.4196 31.3232ZM13.1725 22.4578C12.5259 22.4578 12.0014 22.9824 12.0014 23.629C12.0014 24.2756 12.5259 24.7996 13.1725 24.7996C13.8191 24.7996 14.3437 24.2756 14.3437 23.629C14.3437 22.9829 13.8191 22.4578 13.1725 22.4578Z" />
  </mask>
  <path
    d="M24.6734 31.3244H23.6755C23.3029 26.1593 20.5765 19.6182 16.7035 17C20.5793 14.381 23.2969 7.84147 23.6663 2.67566H24.6735C25.3206 2.67566 25.8447 2.15109 25.8447 1.5045C25.8447 0.857915 25.3206 0.333344 24.6735 0.333344H1.67116C1.02402 0.333344 0.5 0.857915 0.5 1.5045C0.5 2.15109 1.02402 2.67566 1.67116 2.67566H2.66583C3.0368 7.84077 5.76149 14.3813 9.63403 17C5.76149 19.6169 3.03635 26.1569 2.66527 31.3244H1.67169C1.02456 31.3244 0.500528 31.8489 0.500528 32.4955C0.500528 33.1421 1.02456 33.6667 1.67169 33.6667H24.674C25.3212 33.6667 25.8452 33.1421 25.8452 32.4955C25.8452 31.8489 25.3217 31.3244 24.674 31.3244H24.6734ZM5.01093 2.67427H21.328C21.1924 4.28939 20.7871 6.07226 20.183 7.79084H6.15569C5.55268 6.07226 5.14739 4.29036 5.01122 2.67427H5.01093ZM7.12067 10.1338H19.2186C18.0779 12.4907 16.5662 14.4774 14.8804 15.3654C14.8788 15.3659 14.8771 15.3676 14.8755 15.3686C14.7851 15.4139 13.0654 16.2244 11.4666 15.3686C11.465 15.3681 11.4644 15.3681 11.4634 15.3681C11.4601 15.3665 11.4574 15.3659 11.4541 15.3643C9.77092 14.4753 8.25984 12.4892 7.12081 10.1338L7.12067 10.1338ZM9.78655 31.3232L13.1873 28.6431L16.6158 31.3232H9.78655ZM20.4196 31.3232L13.9069 26.2316C13.4804 25.8988 12.8839 25.8999 12.4601 26.2338L5.99963 31.3232H5.01095C5.40696 26.6102 8.05655 20.4755 11.405 18.6643C11.7406 19.1437 12.0015 19.6622 12.0015 20.1111C12.0015 20.7577 12.5261 21.2823 13.1727 21.2823C13.8198 21.2823 14.3438 20.7577 14.3438 20.1111C14.3438 19.6192 14.5939 19.1066 14.9098 18.6501C18.2703 20.4487 20.9313 26.6015 21.3283 31.3237H20.4197L20.4196 31.3232ZM13.1725 22.4578C12.5259 22.4578 12.0014 22.9824 12.0014 23.629C12.0014 24.2756 12.5259 24.7996 13.1725 24.7996C13.8191 24.7996 14.3437 24.2756 14.3437 23.629C14.3437 22.9829 13.8191 22.4578 13.1725 22.4578Z"
    fill="#222222" stroke="#222222" stroke-width="2.66667" mask="url(#path-1-inside-1_2581_4256)" />
</svg>