<svg width="512" height="512" viewBox="0 0 28 40" fill="none" xmlns="http://www.w3.org/2000/svg">
  <mask id="path-1-inside-1_2581_4290" fill="white">
    <path
      d="M27.492 19.8805C27.2663 15.5828 25.4442 12.6723 22.3151 11.5173C22.5201 11.187 22.7457 10.8491 23.0051 10.4997C23.3011 10.1018 23.3136 9.56111 23.0389 9.14852L21.6654 7.09755C21.406 6.71058 20.9449 6.52035 20.487 6.59447C20.1268 6.65879 19.7343 6.75471 19.3212 6.89043C18.4404 5.46889 16.8668 4.895 15.6966 4.7637C15.5178 4.38108 15.3941 3.68669 15.9882 2.70729C16.1822 2.38626 16.2111 1.99056 16.0645 1.64445C15.9184 1.29834 15.6143 1.04272 15.248 0.958237L11.2201 0.0289314C10.6964 -0.088798 10.1568 0.160287 9.91204 0.63938C9.845 0.770736 8.44864 3.57177 9.27271 6.38416C8.39192 7.05674 7.19551 8.33438 6.98021 10.3902C5.19952 10.9598 3.51161 12.2407 2.36536 14.0137C0.972226 16.171 -0.825855 20.9282 2.79594 28.5557C6.84555 37.0851 12.0121 40 15.9075 40C16.6019 40 17.2554 39.9068 17.855 39.7373C22.7718 38.3463 27.9061 27.7682 27.4918 19.8806L27.492 19.8805ZM11.1975 7.92227C11.4881 7.79036 11.7115 7.54564 11.8178 7.24423C11.9235 6.94337 11.9012 6.61198 11.7584 6.32747C11.0929 5.00955 11.3856 3.47084 11.6777 2.54268L13.3603 2.9302C12.8862 4.73267 13.647 6.15198 14.2395 6.73843C14.4651 6.96245 14.7753 7.07527 15.0941 7.07854C15.1099 7.07145 16.4769 7.0551 17.2013 7.907C16.0033 8.66733 14.7323 9.819 13.494 11.5435C12.1205 10.4114 10.6124 10.1339 9.42302 10.0724C9.84979 8.58331 11.1383 7.95109 11.1977 7.92221L11.1975 7.92227ZM17.2165 37.4833C13.8846 38.4246 8.79175 35.7206 4.9132 27.5515C1.7792 20.951 3.20618 17.0349 4.33492 15.287C5.64683 13.2561 7.61822 12.3476 8.99833 12.4021C10.416 12.4304 11.4199 12.7863 12.2261 13.5554C11.4968 14.846 10.4062 16.6382 8.37644 16.8904C7.73437 16.97 7.27872 17.5554 7.35775 18.1975C7.43732 18.8406 8.02598 19.2946 8.66476 19.2161C11.9666 18.8074 13.5337 16.0161 14.3769 14.5178C14.4826 14.3287 14.5786 14.1587 14.687 13.9793C16.6148 10.8187 18.632 9.55467 20.1723 9.0811L20.6426 9.7853C18.4422 13.0725 18.3993 15.7595 18.3595 18.1474C18.3094 21.2536 18.2679 23.7063 12.8698 27.0588C12.3204 27.4011 12.1509 28.1222 12.4932 28.6717C12.7144 29.0303 13.0971 29.2254 13.4895 29.2254C13.7004 29.2254 13.9135 29.1693 14.107 29.0494C20.5909 25.0221 20.6498 21.5453 20.7042 18.1851C20.7282 16.6911 20.7533 15.2478 21.2983 13.6541C23.6714 14.4362 24.9713 16.5614 25.1534 20.0033C25.5311 27.2518 20.8197 36.4638 17.2165 37.4838L17.2165 37.4833Z" />
  </mask>
  <path
    d="M27.492 19.8805C27.2663 15.5828 25.4442 12.6723 22.3151 11.5173C22.5201 11.187 22.7457 10.8491 23.0051 10.4997C23.3011 10.1018 23.3136 9.56111 23.0389 9.14852L21.6654 7.09755C21.406 6.71058 20.9449 6.52035 20.487 6.59447C20.1268 6.65879 19.7343 6.75471 19.3212 6.89043C18.4404 5.46889 16.8668 4.895 15.6966 4.7637C15.5178 4.38108 15.3941 3.68669 15.9882 2.70729C16.1822 2.38626 16.2111 1.99056 16.0645 1.64445C15.9184 1.29834 15.6143 1.04272 15.248 0.958237L11.2201 0.0289314C10.6964 -0.088798 10.1568 0.160287 9.91204 0.63938C9.845 0.770736 8.44864 3.57177 9.27271 6.38416C8.39192 7.05674 7.19551 8.33438 6.98021 10.3902C5.19952 10.9598 3.51161 12.2407 2.36536 14.0137C0.972226 16.171 -0.825855 20.9282 2.79594 28.5557C6.84555 37.0851 12.0121 40 15.9075 40C16.6019 40 17.2554 39.9068 17.855 39.7373C22.7718 38.3463 27.9061 27.7682 27.4918 19.8806L27.492 19.8805ZM11.1975 7.92227C11.4881 7.79036 11.7115 7.54564 11.8178 7.24423C11.9235 6.94337 11.9012 6.61198 11.7584 6.32747C11.0929 5.00955 11.3856 3.47084 11.6777 2.54268L13.3603 2.9302C12.8862 4.73267 13.647 6.15198 14.2395 6.73843C14.4651 6.96245 14.7753 7.07527 15.0941 7.07854C15.1099 7.07145 16.4769 7.0551 17.2013 7.907C16.0033 8.66733 14.7323 9.819 13.494 11.5435C12.1205 10.4114 10.6124 10.1339 9.42302 10.0724C9.84979 8.58331 11.1383 7.95109 11.1977 7.92221L11.1975 7.92227ZM17.2165 37.4833C13.8846 38.4246 8.79175 35.7206 4.9132 27.5515C1.7792 20.951 3.20618 17.0349 4.33492 15.287C5.64683 13.2561 7.61822 12.3476 8.99833 12.4021C10.416 12.4304 11.4199 12.7863 12.2261 13.5554C11.4968 14.846 10.4062 16.6382 8.37644 16.8904C7.73437 16.97 7.27872 17.5554 7.35775 18.1975C7.43732 18.8406 8.02598 19.2946 8.66476 19.2161C11.9666 18.8074 13.5337 16.0161 14.3769 14.5178C14.4826 14.3287 14.5786 14.1587 14.687 13.9793C16.6148 10.8187 18.632 9.55467 20.1723 9.0811L20.6426 9.7853C18.4422 13.0725 18.3993 15.7595 18.3595 18.1474C18.3094 21.2536 18.2679 23.7063 12.8698 27.0588C12.3204 27.4011 12.1509 28.1222 12.4932 28.6717C12.7144 29.0303 13.0971 29.2254 13.4895 29.2254C13.7004 29.2254 13.9135 29.1693 14.107 29.0494C20.5909 25.0221 20.6498 21.5453 20.7042 18.1851C20.7282 16.6911 20.7533 15.2478 21.2983 13.6541C23.6714 14.4362 24.9713 16.5614 25.1534 20.0033C25.5311 27.2518 20.8197 36.4638 17.2165 37.4838L17.2165 37.4833Z"
    fill="#222222" stroke="#222222" stroke-width="2.66667" mask="url(#path-1-inside-1_2581_4290)" />
</svg>