<svg width="512" height="512" viewBox="0 0 30 34" fill="none" xmlns="http://www.w3.org/2000/svg">
  <mask id="path-1-inside-1_2581_803" fill="white">
    <path
      d="M29.0375 13.3735C28.7495 9.39673 27.8228 4.42218 25.0458 3.30368C23.2426 2.57757 21.6509 3.17961 19.9664 3.81772C18.5734 4.34524 17.1322 4.89053 15.2496 4.89053C14.0272 4.89053 12.827 4.77176 11.6575 4.64049C11.7166 4.48277 11.807 4.32264 11.9369 4.10625C12.2831 3.53065 12.7558 2.74253 12.7558 1.36723C12.7558 0.796447 12.2932 0.333374 11.7219 0.333374C11.1511 0.333374 10.6881 0.796447 10.6881 1.36723C10.6881 2.16884 10.4572 2.55353 10.1639 3.0397C9.94079 3.41188 9.68641 3.84226 9.57389 4.41302C7.22535 4.1899 5.0782 4.20817 3.58276 5.57816C1.93873 7.08234 2.09741 8.65472 2.29696 10.6465C2.52248 12.8883 2.83072 15.9581 1.08277 21.3034C0.463899 23.5006 1.11258 24.8469 1.76512 25.5899C3.21883 27.245 5.89716 27.3431 7.10898 27.1657C8.54004 26.9541 9.72243 26.1862 10.4385 25.0033C11.1983 23.7473 11.3541 22.1474 10.8569 20.7245C10.5155 19.7488 10.5582 18.8727 10.9713 18.3822C11.2031 18.1077 11.5354 17.998 11.9287 18.0615C14.2402 18.4395 14.9649 17.6465 15.5088 16.8007C15.7247 16.4679 15.804 16.3429 16.1627 16.2525C16.3537 16.1986 16.7956 16.4924 17.1485 16.7242C17.9198 17.2301 19.0849 17.9941 20.4829 17.32C21.5143 16.8242 22.0966 15.7222 21.9673 14.5122C21.8072 13.0196 20.6478 11.803 19.0134 11.4135C18.0291 11.1778 15.4583 10.8201 12.8641 12.5656C12.2904 12.9503 11.7244 13.0446 11.3844 12.8123C11.0218 12.5632 10.728 11.7789 10.8934 10.3738C13.3752 10.7614 17.0211 10.9888 22.3419 9.32116C23.0459 12.4121 23.5863 16.5173 22.8502 17.7046C22.0794 18.9482 20.6752 18.9496 18.4546 18.8034C16.7355 18.6904 14.9582 18.5741 13.6036 19.594C11.9379 20.8467 11.9807 22.8042 12.0255 24.8768C12.0639 26.6421 12.1077 28.642 11.2051 30.7524C10.981 31.2775 11.2243 31.8858 11.7499 32.1099C11.8817 32.1671 12.0206 32.1931 12.1558 32.1931C12.5568 32.1931 12.9391 31.9579 13.1069 31.5655C14.185 29.0439 14.1341 26.7083 14.0942 24.832C14.0509 22.8802 14.0658 21.8338 14.8482 21.2456C15.5892 20.6878 16.9164 20.7754 18.32 20.8658C20.4604 21.0071 23.1268 21.1807 24.6083 18.7942C26.1917 16.2403 24.4477 9.1264 24.0817 7.72562C24.0091 7.44624 23.8226 7.21061 23.5682 7.075C23.3133 6.93987 23.0147 6.91631 22.7425 7.01008C16.1965 9.28365 12.2352 8.53827 9.86976 8.093C8.34157 7.80641 7.02352 7.55876 6.19406 8.65561C5.7834 9.19754 5.82957 9.92073 5.92092 11.3619C6.06902 13.6787 6.31523 17.5564 4.651 21.9439C4.44904 22.4776 4.71736 23.0753 5.2516 23.2778C5.7844 23.4812 6.38308 23.2124 6.58504 22.6781C8.40843 17.8734 8.13342 13.5527 7.98533 11.2321C7.95503 10.7489 7.92041 10.2146 7.92762 9.90976C8.12958 9.89534 8.48303 9.94631 8.8581 10.0112C8.4864 12.8204 9.5116 14.0337 10.217 14.517C11.2711 15.2402 12.7286 15.1493 14.0198 14.2799C15.9341 12.9922 17.8152 13.2514 18.5351 13.4245C19.4714 13.6476 19.861 14.2463 19.9124 14.7314C19.9268 14.8589 19.9427 15.2859 19.5883 15.4561C19.2892 15.6009 19.0146 15.4739 18.2847 14.995C17.5927 14.5405 16.7333 13.9779 15.6601 14.2463C14.5075 14.5357 14.0651 15.2253 13.7712 15.6806C13.5222 16.0682 13.4308 16.212 12.2657 16.0196C11.1434 15.8355 10.0951 16.2106 9.38919 17.0511C8.48901 18.1225 8.31157 19.7094 8.90544 21.4063C9.19684 22.2411 9.10692 23.2092 8.66885 23.9324C8.39235 24.3887 7.8456 24.9658 6.80742 25.1187C5.81587 25.2668 4.07567 25.085 3.31773 24.2238C2.8537 23.6958 2.77386 22.9236 3.05998 21.9055C4.9315 16.1856 4.58435 12.7277 4.35402 10.4383C4.16024 8.51586 4.13955 7.87056 4.97771 7.10302C6.09092 6.08358 8.2889 6.33555 10.8313 6.62888C12.1778 6.78419 13.7031 6.95923 15.2491 6.95923C17.5096 6.95923 19.2774 6.28987 20.6973 5.75274C22.3068 5.14252 23.2671 4.81842 24.2731 5.22282C25.2704 5.62386 26.5769 8.03976 26.9741 13.5236C27.3063 18.1077 26.3297 20.9486 24.0725 21.9686C22.1914 22.8178 20.8343 22.6875 19.6371 22.5716C18.5623 22.4682 17.453 22.3605 16.4273 23.1184C15.7026 23.6545 15.7296 24.562 15.7632 25.7103C15.806 27.1567 15.8695 29.3428 14.8438 32.2929C14.6558 32.832 14.9409 33.422 15.48 33.6095C15.5925 33.6489 15.707 33.6667 15.82 33.6667C16.2479 33.6667 16.648 33.3993 16.7961 32.9723C17.9488 29.6611 17.8742 27.15 17.83 25.6483C17.8204 25.3107 17.8088 24.9073 17.8252 24.6803C18.1738 24.5182 18.634 24.5519 19.4384 24.6293C20.7469 24.7563 22.5391 24.9284 24.9232 23.8532C28.0556 22.4403 29.44 18.9142 29.0385 13.3736L29.0375 13.3735Z" />
  </mask>
  <path
    d="M29.0375 13.3735C28.7495 9.39673 27.8228 4.42218 25.0458 3.30368C23.2426 2.57757 21.6509 3.17961 19.9664 3.81772C18.5734 4.34524 17.1322 4.89053 15.2496 4.89053C14.0272 4.89053 12.827 4.77176 11.6575 4.64049C11.7166 4.48277 11.807 4.32264 11.9369 4.10625C12.2831 3.53065 12.7558 2.74253 12.7558 1.36723C12.7558 0.796447 12.2932 0.333374 11.7219 0.333374C11.1511 0.333374 10.6881 0.796447 10.6881 1.36723C10.6881 2.16884 10.4572 2.55353 10.1639 3.0397C9.94079 3.41188 9.68641 3.84226 9.57389 4.41302C7.22535 4.1899 5.0782 4.20817 3.58276 5.57816C1.93873 7.08234 2.09741 8.65472 2.29696 10.6465C2.52248 12.8883 2.83072 15.9581 1.08277 21.3034C0.463899 23.5006 1.11258 24.8469 1.76512 25.5899C3.21883 27.245 5.89716 27.3431 7.10898 27.1657C8.54004 26.9541 9.72243 26.1862 10.4385 25.0033C11.1983 23.7473 11.3541 22.1474 10.8569 20.7245C10.5155 19.7488 10.5582 18.8727 10.9713 18.3822C11.2031 18.1077 11.5354 17.998 11.9287 18.0615C14.2402 18.4395 14.9649 17.6465 15.5088 16.8007C15.7247 16.4679 15.804 16.3429 16.1627 16.2525C16.3537 16.1986 16.7956 16.4924 17.1485 16.7242C17.9198 17.2301 19.0849 17.9941 20.4829 17.32C21.5143 16.8242 22.0966 15.7222 21.9673 14.5122C21.8072 13.0196 20.6478 11.803 19.0134 11.4135C18.0291 11.1778 15.4583 10.8201 12.8641 12.5656C12.2904 12.9503 11.7244 13.0446 11.3844 12.8123C11.0218 12.5632 10.728 11.7789 10.8934 10.3738C13.3752 10.7614 17.0211 10.9888 22.3419 9.32116C23.0459 12.4121 23.5863 16.5173 22.8502 17.7046C22.0794 18.9482 20.6752 18.9496 18.4546 18.8034C16.7355 18.6904 14.9582 18.5741 13.6036 19.594C11.9379 20.8467 11.9807 22.8042 12.0255 24.8768C12.0639 26.6421 12.1077 28.642 11.2051 30.7524C10.981 31.2775 11.2243 31.8858 11.7499 32.1099C11.8817 32.1671 12.0206 32.1931 12.1558 32.1931C12.5568 32.1931 12.9391 31.9579 13.1069 31.5655C14.185 29.0439 14.1341 26.7083 14.0942 24.832C14.0509 22.8802 14.0658 21.8338 14.8482 21.2456C15.5892 20.6878 16.9164 20.7754 18.32 20.8658C20.4604 21.0071 23.1268 21.1807 24.6083 18.7942C26.1917 16.2403 24.4477 9.1264 24.0817 7.72562C24.0091 7.44624 23.8226 7.21061 23.5682 7.075C23.3133 6.93987 23.0147 6.91631 22.7425 7.01008C16.1965 9.28365 12.2352 8.53827 9.86976 8.093C8.34157 7.80641 7.02352 7.55876 6.19406 8.65561C5.7834 9.19754 5.82957 9.92073 5.92092 11.3619C6.06902 13.6787 6.31523 17.5564 4.651 21.9439C4.44904 22.4776 4.71736 23.0753 5.2516 23.2778C5.7844 23.4812 6.38308 23.2124 6.58504 22.6781C8.40843 17.8734 8.13342 13.5527 7.98533 11.2321C7.95503 10.7489 7.92041 10.2146 7.92762 9.90976C8.12958 9.89534 8.48303 9.94631 8.8581 10.0112C8.4864 12.8204 9.5116 14.0337 10.217 14.517C11.2711 15.2402 12.7286 15.1493 14.0198 14.2799C15.9341 12.9922 17.8152 13.2514 18.5351 13.4245C19.4714 13.6476 19.861 14.2463 19.9124 14.7314C19.9268 14.8589 19.9427 15.2859 19.5883 15.4561C19.2892 15.6009 19.0146 15.4739 18.2847 14.995C17.5927 14.5405 16.7333 13.9779 15.6601 14.2463C14.5075 14.5357 14.0651 15.2253 13.7712 15.6806C13.5222 16.0682 13.4308 16.212 12.2657 16.0196C11.1434 15.8355 10.0951 16.2106 9.38919 17.0511C8.48901 18.1225 8.31157 19.7094 8.90544 21.4063C9.19684 22.2411 9.10692 23.2092 8.66885 23.9324C8.39235 24.3887 7.8456 24.9658 6.80742 25.1187C5.81587 25.2668 4.07567 25.085 3.31773 24.2238C2.8537 23.6958 2.77386 22.9236 3.05998 21.9055C4.9315 16.1856 4.58435 12.7277 4.35402 10.4383C4.16024 8.51586 4.13955 7.87056 4.97771 7.10302C6.09092 6.08358 8.2889 6.33555 10.8313 6.62888C12.1778 6.78419 13.7031 6.95923 15.2491 6.95923C17.5096 6.95923 19.2774 6.28987 20.6973 5.75274C22.3068 5.14252 23.2671 4.81842 24.2731 5.22282C25.2704 5.62386 26.5769 8.03976 26.9741 13.5236C27.3063 18.1077 26.3297 20.9486 24.0725 21.9686C22.1914 22.8178 20.8343 22.6875 19.6371 22.5716C18.5623 22.4682 17.453 22.3605 16.4273 23.1184C15.7026 23.6545 15.7296 24.562 15.7632 25.7103C15.806 27.1567 15.8695 29.3428 14.8438 32.2929C14.6558 32.832 14.9409 33.422 15.48 33.6095C15.5925 33.6489 15.707 33.6667 15.82 33.6667C16.2479 33.6667 16.648 33.3993 16.7961 32.9723C17.9488 29.6611 17.8742 27.15 17.83 25.6483C17.8204 25.3107 17.8088 24.9073 17.8252 24.6803C18.1738 24.5182 18.634 24.5519 19.4384 24.6293C20.7469 24.7563 22.5391 24.9284 24.9232 23.8532C28.0556 22.4403 29.44 18.9142 29.0385 13.3736L29.0375 13.3735Z"
    fill="#222222" stroke="#222222" stroke-width="2.66667" mask="url(#path-1-inside-1_2581_803)" />
</svg>