<?xml version="1.0" standalone="no"?>
<!DOCTYPE svg PUBLIC "-//W3C//DTD SVG 20010904//EN"
 "http://www.w3.org/TR/2001/REC-SVG-20010904/DTD/svg10.dtd">
<svg version="1.0" xmlns="http://www.w3.org/2000/svg"
 width="512.000000pt" height="512.000000pt" viewBox="0 0 512.000000 512.000000"
 preserveAspectRatio="xMidYMid meet">

<g transform="translate(0.000000,512.000000) scale(0.100000,-0.100000)"
fill="#000000" stroke="none">
<path d="M2506 5024 c-34 -11 -64 -31 -102 -68 -76 -76 -84 -111 -84 -358 l0
-198 -55 0 c-46 0 -60 -4 -80 -25 -25 -24 -25 -26 -25 -215 0 -189 0 -191 25
-215 23 -24 29 -25 160 -25 l135 0 0 -135 0 -135 -221 -111 c-189 -95 -229
-119 -277 -167 -63 -63 -113 -156 -131 -240 -8 -37 -11 -442 -11 -1340 0
-1417 -3 -1342 61 -1463 62 -115 197 -214 328 -239 73 -14 1869 -14 1942 0
184 35 345 196 379 379 15 78 14 2593 -1 2663 -17 83 -67 174 -130 238 -50 51
-85 72 -278 169 l-221 111 0 135 0 135 135 0 c131 0 137 1 160 25 25 24 25 26
25 215 0 189 0 191 -25 215 -20 21 -34 25 -80 25 l-55 0 0 199 c0 244 -9 280
-86 358 -85 86 -58 83 -798 82 -540 0 -649 -3 -690 -15z m1376 -182 l33 -32 3
-205 3 -205 -120 0 -121 0 0 135 c0 131 -1 137 -25 160 -15 16 -36 25 -55 25
-19 0 -40 -9 -55 -25 -24 -23 -25 -29 -25 -160 l0 -135 -120 0 -120 0 0 135
c0 131 -1 137 -25 160 -15 16 -36 25 -55 25 -19 0 -40 -9 -55 -25 -24 -23 -25
-29 -25 -160 l0 -135 -120 0 -120 0 0 135 c0 131 -1 137 -25 160 -32 33 -78
33 -110 0 -24 -23 -25 -29 -25 -160 l0 -135 -121 0 -120 0 3 204 c3 202 3 205
28 231 14 15 34 31 45 36 11 4 307 7 657 6 l638 -2 32 -33z m198 -682 l0 -80
-880 0 -880 0 0 80 0 80 880 0 880 0 0 -80z m-320 -360 l0 -120 -560 0 -560 0
0 120 0 120 560 0 560 0 0 -120z m280 -390 c124 -62 237 -126 260 -146 22 -20
52 -61 67 -92 27 -56 28 -62 31 -254 l4 -198 -1202 0 -1202 0 4 198 c3 191 4
199 30 252 43 88 80 115 321 237 l222 112 623 1 622 0 220 -110z m360 -1570
l0 -720 -1200 0 -1200 0 0 720 0 720 1200 0 1200 0 0 -720z m-2 -1122 l-3
-243 -34 -63 c-38 -70 -69 -100 -145 -140 l-51 -27 -965 0 -965 0 -51 27 c-76
40 -107 70 -145 140 l-34 63 -3 243 -4 242 1202 0 1202 0 -4 -242z"/>
<path d="M2265 2396 c-43 -18 -93 -79 -101 -121 -16 -90 37 -220 134 -326 l59
-64 -53 -60 c-135 -150 -169 -305 -88 -395 45 -50 88 -64 177 -57 86 6 206 63
291 139 l57 51 52 -51 c156 -152 371 -227 647 -227 225 1 390 45 542 144 285
186 339 486 130 713 -105 114 -260 196 -442 235 -119 25 -355 25 -465 -1 -156
-36 -308 -109 -390 -187 l-30 -29 -76 73 c-123 118 -241 176 -354 176 -33 0
-74 -6 -90 -13z m193 -176 c77 -36 182 -134 224 -208 33 -57 52 -72 94 -72 19
0 36 11 58 37 107 125 217 195 370 233 97 25 130 26 122 5 -41 -109 -54 -473
-23 -642 10 -51 20 -100 23 -108 8 -21 -25 -20 -122 5 -168 43 -289 120 -360
231 -67 103 -113 106 -188 11 -78 -99 -209 -182 -288 -182 -48 0 -49 15 -8 97
28 56 64 95 184 199 25 22 36 40 36 59 0 28 -12 42 -125 140 -68 59 -123 138
-132 188 l-6 37 39 0 c23 0 66 -13 102 -30z m1200 -6 c197 -44 363 -165 408
-298 56 -165 -82 -343 -329 -427 -87 -29 -227 -53 -239 -41 -4 4 -17 54 -29
112 -32 150 -32 410 0 559 12 58 24 108 27 113 6 9 74 1 162 -18z"/>
<path d="M3705 2055 c-50 -49 -15 -135 55 -135 41 0 80 39 80 80 0 41 -39 80
-80 80 -19 0 -40 -9 -55 -25z"/>
<path d="M1130 881 c-70 -23 -123 -67 -153 -127 -15 -29 -21 -32 -87 -38 -175
-18 -325 -99 -383 -211 -29 -55 -29 -155 0 -210 27 -52 97 -117 160 -148 155
-79 374 -88 537 -22 l59 24 46 -24 c189 -95 359 -62 437 85 28 51 25 185 -5
261 -65 169 -224 327 -390 390 -60 22 -180 34 -221 20z m212 -192 c164 -86
302 -303 259 -407 -21 -50 -86 -65 -161 -38 -38 14 -39 20 -16 81 55 144 -56
299 -258 365 l-39 13 24 14 c38 22 118 10 191 -28z m-212 -158 c82 -31 118
-57 137 -97 17 -34 17 -37 -2 -71 -36 -65 -175 -123 -296 -123 -129 0 -272 52
-309 112 -26 42 -25 58 3 98 66 97 312 140 467 81z"/>
</g>
</svg>
