<?xml version="1.0" standalone="no"?>
<!DOCTYPE svg PUBLIC "-//W3C//DTD SVG 20010904//EN"
 "http://www.w3.org/TR/2001/REC-SVG-20010904/DTD/svg10.dtd">
<svg version="1.0" xmlns="http://www.w3.org/2000/svg"
 width="512.000000pt" height="512.000000pt" viewBox="0 0 512.000000 512.000000"
 preserveAspectRatio="xMidYMid meet">

<g transform="translate(0.000000,512.000000) scale(0.100000,-0.100000)"
fill="#000000" stroke="none">
<path d="M755 5104 c-209 -51 -376 -216 -429 -425 -8 -34 -30 -76 -52 -105
-77 -101 -115 -218 -115 -355 0 -132 38 -254 108 -347 l24 -33 -46 -51 c-107
-119 -162 -275 -152 -433 3 -51 15 -117 27 -152 l22 -62 -25 -33 c-66 -88
-117 -242 -117 -353 0 -111 51 -265 117 -353 l25 -33 -22 -62 c-30 -89 -37
-215 -16 -310 49 -220 219 -396 434 -450 52 -13 54 -15 76 -69 60 -146 171
-310 245 -359 60 -39 113 -52 191 -47 111 8 190 61 239 160 53 106 41 226 -34
328 -19 26 -35 50 -35 53 0 3 24 17 53 32 189 98 309 280 324 490 6 94 -6 169
-43 262 -24 59 -25 70 -14 97 49 121 53 140 53 261 0 121 -4 140 -53 261 -11
27 -10 38 14 97 30 76 46 150 46 217 l0 47 81 17 c47 10 115 35 163 60 l82 42
39 -29 c104 -77 260 -127 395 -127 135 0 291 50 394 127 l40 29 85 -44 c53
-26 117 -49 168 -60 78 -16 82 -18 87 -47 4 -16 18 -54 31 -84 l26 -55 -25
-62 c-14 -35 -28 -81 -32 -102 -6 -38 -7 -39 -102 -76 -212 -82 -386 -200
-552 -373 -213 -220 -350 -486 -406 -788 -26 -139 -26 -401 0 -540 36 -194
131 -438 180 -465 57 -30 129 -4 144 53 10 37 8 45 -52 192 -68 167 -90 284
-90 490 0 128 4 191 18 254 60 277 175 491 371 686 195 196 409 312 686 371
116 25 379 26 501 1 274 -55 495 -174 693 -372 119 -119 191 -219 260 -360
321 -659 44 -1457 -620 -1780 -196 -95 -351 -130 -585 -129 -196 0 -313 21
-473 85 -188 75 -175 72 -215 52 -52 -25 -71 -77 -47 -127 14 -29 31 -43 92
-71 436 -207 978 -187 1398 52 233 133 449 347 582 578 127 219 203 505 203
760 0 392 -171 808 -438 1069 l-50 48 29 62 c76 163 76 350 -1 513 l-30 64 26
51 c104 205 75 462 -72 643 -46 56 -46 57 -35 100 6 24 11 86 11 138 0 138
-36 248 -115 352 -21 27 -43 71 -51 104 -26 100 -80 196 -153 269 -78 78 -159
125 -267 152 -98 25 -180 25 -278 0 -108 -27 -190 -74 -268 -152 l-68 -67 -43
19 c-198 88 -432 60 -597 -71 l-50 -39 -61 31 c-153 77 -348 76 -500 -1 l-60
-30 -49 39 c-165 131 -400 159 -597 71 l-43 -19 -70 69 c-142 140 -347 199
-535 154z m288 -222 c72 -34 139 -97 173 -164 48 -95 109 -112 188 -52 85 65
129 79 241 79 131 0 186 -24 285 -126 67 -68 72 -71 108 -66 24 3 59 20 93 46
61 47 158 81 229 81 71 0 168 -34 229 -81 34 -26 69 -43 93 -46 36 -5 41 -2
108 66 99 102 154 126 285 126 112 0 156 -14 241 -79 79 -60 140 -43 188 52
35 68 101 130 176 166 58 27 75 31 155 31 80 0 97 -3 155 -31 116 -56 188
-150 215 -282 8 -36 23 -77 35 -91 104 -130 123 -180 118 -311 -4 -80 -9 -104
-33 -150 -56 -109 -134 -176 -243 -210 -113 -35 -226 -19 -331 45 -97 60 -138
46 -197 -65 -73 -140 -205 -228 -357 -237 -126 -8 -206 19 -321 109 -74 58
-108 53 -203 -33 -107 -98 -267 -139 -415 -108 -66 14 -172 68 -217 112 -86
81 -124 86 -197 29 -115 -90 -195 -117 -321 -109 -152 9 -284 97 -357 237 -20
38 -47 76 -59 85 -32 23 -78 18 -128 -13 -151 -96 -321 -93 -459 7 -61 43 -85
72 -126 151 -23 46 -28 70 -32 150 -5 131 14 181 118 311 12 14 27 55 35 91
18 88 53 153 112 209 84 81 163 111 281 104 54 -3 89 -11 135 -33z m3436
-1102 c30 -58 44 -137 38 -208 -6 -63 -29 -119 -92 -232 -30 -51 -27 -77 11
-128 14 -18 37 -58 52 -90 22 -48 27 -71 27 -147 0 -64 -5 -104 -19 -138 -10
-26 -21 -47 -25 -45 -3 2 -51 30 -106 62 -280 168 -643 246 -950 207 -33 -5
-62 -6 -65 -4 -3 3 10 31 28 63 38 70 40 103 8 151 -23 34 -56 104 -56 119 0
4 27 17 61 29 90 34 206 116 267 193 l52 65 68 -25 c57 -22 84 -26 182 -26 96
-1 127 3 189 23 85 28 202 102 252 159 38 44 43 42 78 -28z m-3953 -114 c77
-31 175 -49 254 -44 72 4 71 17 22 -157 -68 -244 -110 -517 -121 -785 -8 -191
3 -519 19 -582 12 -41 56 -78 95 -78 31 0 84 37 91 64 3 13 2 116 -3 228 -15
329 4 605 63 896 25 124 97 388 109 400 3 3 19 -10 35 -30 40 -49 151 -123
235 -157 l70 -28 3 -52 c4 -64 -20 -150 -59 -214 -36 -60 -38 -105 -4 -155 34
-50 65 -153 65 -217 0 -64 -31 -167 -65 -217 -34 -50 -32 -95 4 -155 92 -151
75 -341 -41 -468 -62 -68 -111 -98 -207 -124 -85 -24 -108 -41 -117 -87 -8
-46 18 -111 88 -216 71 -106 77 -150 27 -192 -20 -18 -42 -26 -67 -26 -30 0
-43 8 -82 49 -50 53 -138 214 -166 303 -24 78 -46 97 -130 109 -197 28 -337
172 -351 362 -6 79 12 165 47 222 38 63 30 103 -35 175 -74 84 -99 149 -99
265 0 116 25 181 99 265 65 72 73 112 35 175 -66 109 -64 273 5 390 32 56 93
118 109 111 6 -2 38 -16 72 -30z"/>
<path d="M874 4464 c-56 -27 -72 -103 -31 -148 34 -39 290 -129 552 -195 770
-192 1597 -148 2338 124 136 50 167 74 167 127 0 48 -26 86 -68 98 -34 11 -48
7 -162 -35 -845 -311 -1775 -309 -2630 4 -61 23 -117 41 -123 41 -7 0 -26 -7
-43 -16z"/>
<path d="M3385 2593 c-255 -92 -274 -427 -32 -555 34 -18 58 -23 127 -23 76 0
91 3 139 30 173 96 212 319 82 468 -71 81 -213 117 -316 80z m161 -217 c37
-37 43 -70 20 -115 -47 -90 -186 -50 -186 55 0 38 59 94 100 94 23 0 42 -9 66
-34z"/>
<path d="M2809 2241 c-80 -81 19 -206 121 -151 34 18 53 74 40 116 -23 70
-108 88 -161 35z"/>
<path d="M4135 2172 c-35 -11 -67 -33 -106 -72 -72 -71 -89 -120 -89 -254 0
-86 -4 -110 -26 -161 -59 -139 -40 -260 55 -356 71 -70 133 -94 231 -87 126 9
213 79 269 215 54 132 66 195 66 358 0 140 -2 153 -25 200 -70 141 -225 207
-375 157z m167 -211 l33 -29 0 -124 c-1 -127 -12 -185 -57 -291 -35 -80 -114
-103 -169 -48 -37 37 -37 63 1 171 26 73 30 100 30 188 0 101 1 104 29 133 40
40 89 40 133 0z"/>
<path d="M2755 1833 c-175 -63 -252 -252 -170 -419 47 -96 139 -153 321 -200
77 -19 125 -25 215 -26 154 0 210 16 282 82 77 70 101 129 95 235 -3 49 -11
93 -22 113 -28 54 -86 112 -140 140 -45 23 -64 26 -168 29 -100 2 -125 6 -180
29 -82 34 -166 41 -233 17z m204 -218 c61 -22 94 -27 184 -28 106 -2 110 -3
133 -30 35 -41 33 -99 -5 -138 -25 -25 -38 -29 -88 -30 -148 -4 -245 13 -346
58 -94 42 -114 108 -52 170 41 41 55 41 174 -2z"/>
<path d="M3637 1093 c-64 -22 -144 -94 -173 -158 -18 -38 -24 -67 -24 -125 0
-96 27 -158 98 -221 147 -133 370 -89 469 93 28 51 26 209 -4 264 -69 130
-228 193 -366 147z m171 -218 c31 -36 30 -95 -2 -132 -20 -23 -32 -28 -71 -28
-39 0 -51 5 -71 28 -42 49 -26 134 30 158 35 14 89 2 114 -26z"/>
<path d="M4389 1061 c-55 -55 -30 -148 45 -167 95 -24 160 102 87 168 -43 39
-92 38 -132 -1z"/>
<path d="M2941 926 c-47 -26 -63 -84 -37 -135 18 -35 122 -91 167 -91 86 1
129 110 66 167 -31 29 -122 73 -149 73 -13 -1 -34 -7 -47 -14z"/>
<path d="M2521 606 c-66 -37 -67 -131 -1 -169 87 -52 180 35 138 128 -22 48
-88 68 -137 41z"/>
</g>
</svg>
