<svg version="1.0" xmlns="http://www.w3.org/2000/svg"
  width="512.000000pt" height="512.000000pt" viewBox="0 0 512.000000 512.000000"
  preserveAspectRatio="xMidYMid meet">

  <g transform="translate(0.000000,512.000000) scale(0.100000,-0.100000)"
    fill="#000000" stroke="none">
    <path
      d="M4129 5110 c-43 -13 -76 -39 -93 -75 -12 -25 -16 -66 -16 -179 l0
-145 33 7 c41 9 192 9 235 0 l32 -7 0 137 c0 123 -2 143 -22 182 -17 33 -35
51 -68 68 -47 23 -60 25 -101 12z" />
    <path
      d="M4120 4423 c-51 -8 -96 -26 -143 -55 -126 -80 -176 -263 -112 -407
95 -211 373 -263 535 -101 122 122 129 324 16 458 -64 75 -196 122 -296 105z" />
    <path
      d="M2530 4239 c-19 -3 -224 -116 -455 -250 -328 -191 -424 -251 -442
-278 l-23 -34 0 -443 0 -443 -101 -59 c-63 -37 -97 -62 -89 -67 20 -12 108
-153 120 -193 7 -20 16 -41 20 -46 5 -4 48 15 97 44 48 29 93 53 98 53 6 0 52
-24 103 -53 51 -29 94 -51 96 -49 1 2 11 26 21 53 10 28 42 85 71 128 l53 77
-94 53 -95 53 0 380 0 381 53 30 c28 17 175 101 325 188 l272 158 325 -188
325 -188 0 -380 0 -381 -94 -53 -95 -53 54 -79 c30 -44 62 -102 72 -130 10
-27 21 -50 24 -50 4 0 49 24 100 54 l93 55 40 -24 c23 -13 169 -98 326 -188
l285 -165 3 -376 2 -377 -64 -40 -64 -40 24 -42 c28 -49 53 -120 68 -193 l11
-52 125 74 c144 86 176 114 190 163 6 21 10 214 10 461 l1 425 357 205 c196
113 371 217 388 232 17 16 37 40 43 56 8 20 11 169 9 532 -3 498 -3 505 -24
535 -19 26 -289 195 -312 195 -4 0 -20 -30 -36 -66 -16 -36 -49 -93 -73 -126
-35 -47 -42 -63 -31 -69 7 -5 50 -30 96 -56 l82 -48 -2 -380 -3 -379 -324
-188 -324 -187 -41 24 c-23 13 -169 98 -326 189 l-285 165 0 378 0 377 90 53
c49 29 91 56 92 60 2 5 -14 31 -35 59 -21 28 -53 85 -72 126 l-34 75 -90 -54
c-50 -29 -96 -53 -102 -53 -6 0 -174 94 -372 210 -199 115 -377 213 -395 218
-17 4 -48 5 -67 1z" />
    <path
      d="M841 2549 c-85 -28 -169 -108 -197 -189 -26 -77 -25 -190 3 -252 32
-70 103 -141 174 -173 56 -25 70 -27 148 -23 63 3 97 10 129 27 169 87 232
283 147 457 -67 138 -245 205 -404 153z" />
    <path
      d="M2463 2556 c-96 -31 -177 -108 -213 -202 -45 -120 -10 -277 82 -359
68 -62 119 -80 228 -80 109 0 160 18 228 80 91 81 127 239 82 357 -27 74 -96
150 -166 184 -67 33 -175 42 -241 20z" />
    <path
      d="M800 1508 l0 -115 -362 -209 c-199 -115 -375 -219 -390 -232 -108
-91 -12 -280 129 -254 26 4 177 89 581 324 84 49 163 94 176 100 22 9 62 -11
391 -202 202 -116 380 -216 395 -221 19 -7 41 -7 67 0 21 6 205 107 408 225
l370 214 83 -45 c46 -25 85 -43 86 -41 2 1 9 31 16 66 7 35 30 97 50 138 42
82 43 77 -37 118 l-53 26 0 111 0 111 -37 -7 c-47 -9 -179 -9 -226 0 l-37 7 0
-113 0 -114 -326 -188 c-179 -104 -331 -186 -337 -183 -7 3 -154 87 -327 188
l-315 183 -3 114 -3 113 -25 -6 c-34 -9 -193 -9 -239 0 l-35 6 0 -114z" />
    <path
      d="M3270 1291 c-86 -27 -175 -105 -211 -186 -51 -114 -27 -260 56 -353
160 -178 461 -132 551 83 73 177 -10 380 -182 445 -56 21 -163 26 -214 11z" />
    <path
      d="M3210 240 c0 -90 3 -113 23 -150 41 -84 133 -109 213 -59 51 31 64
71 64 201 l0 113 -150 0 -150 0 0 -105z" />
  </g>
</svg>