<svg version="1.0" xmlns="http://www.w3.org/2000/svg"
  width="512.000000pt" height="512.000000pt" viewBox="0 0 512.000000 512.000000"
  preserveAspectRatio="xMidYMid meet">

  <g transform="translate(0.000000,512.000000) scale(0.100000,-0.100000)"
    fill="#000000" stroke="none">
    <path
      d="M1090 5014 c0 -132 -20 -226 -72 -331 -67 -138 -199 -262 -339 -319
-84 -34 -140 -45 -264 -53 l-110 -6 1 -700 c0 -746 4 -828 55 -1095 119 -626
430 -1203 885 -1640 221 -212 344 -298 922 -639 l392 -232 418 247 c575 340
675 411 910 638 447 434 753 1006 871 1626 51 267 55 349 55 1095 l1 700 -110
6 c-60 4 -131 12 -157 18 -176 41 -346 169 -432 324 -61 110 -78 176 -83 330
l-6 137 -1468 0 -1469 0 0 -106z m2654 -206 c34 -128 52 -184 77 -237 117
-254 354 -451 632 -526 l67 -18 0 -451 c0 -478 -10 -718 -35 -887 -62 -417
-213 -809 -440 -1149 -114 -171 -198 -274 -340 -415 -213 -213 -315 -286 -802
-574 l-342 -203 -318 188 c-503 296 -619 379 -828 588 -311 312 -535 680 -673
1107 -117 361 -142 594 -142 1340 l0 457 68 16 c326 82 605 359 687 685 10 36
19 72 21 79 5 18 2363 18 2368 0z" />
    <path
      d="M2420 4075 c-8 -2 -49 -9 -90 -15 -276 -45 -580 -217 -759 -431 -459
-547 -422 -1317 88 -1806 572 -549 1500 -460 1966 188 272 377 320 890 124
1308 -174 371 -507 639 -909 732 -78 18 -374 35 -420 24z m317 -310 c396 -75
697 -357 805 -753 17 -63 21 -107 22 -237 1 -144 -2 -169 -26 -257 -53 -191
-132 -325 -272 -463 -138 -137 -285 -220 -473 -267 -132 -33 -351 -31 -484 4
-385 103 -677 421 -745 810 -21 118 -14 300 15 410 88 337 342 612 662 717
155 51 345 65 496 36z" />
    <path
      d="M2410 3160 l0 -240 -240 0 -240 0 0 -150 0 -150 240 0 240 0 0 -240
0 -240 150 0 150 0 0 240 0 240 240 0 240 0 0 150 0 150 -240 0 -240 0 0 240
0 240 -150 0 -150 0 0 -240z" />
  </g>
</svg>