<?xml version="1.0" standalone="no"?>
<!DOCTYPE svg PUBLIC "-//W3C//DTD SVG 20010904//EN" "http://www.w3.org/TR/2001/REC-SVG-20010904/DTD/svg10.dtd">
<svg version="1.0" xmlns="http://www.w3.org/2000/svg"
  width="512.000000pt" height="512.000000pt" viewBox="0 0 64.000000 64.000000"
  preserveAspectRatio="xMidYMid meet">

  <g transform="translate(0.000000,64.000000) scale(0.100000,-0.100000)"
    fill="#000000" stroke="none">
    <path d="M197 634 c-7 -7 12 -64 22 -64 17 0 19 14 5 41 -15 31 -17 32 -27 23z" />
    <path
      d="M380 590 c0 -27 2 -50 6 -50 11 0 74 55 74 65 0 10 -54 35 -73 35 -4
0 -7 -22 -7 -50z m40 11 c0 -6 -4 -13 -10 -16 -5 -3 -10 1 -10 9 0 9 5 16 10
16 6 0 10 -4 10 -9z" />
    <path
      d="M31 571 c-17 -21 -31 -41 -31 -44 0 -10 94 -37 102 -29 10 10 -15
105 -29 109 -6 2 -25 -14 -42 -36z m32 -39 c-22 -5 -27 6 -12 24 12 15 14 14
20 -3 4 -12 1 -19 -8 -21z" />
    <path
      d="M275 560 c-14 -27 -29 -50 -33 -50 -4 0 -25 12 -47 25 -60 37 -66 34
-59 -31 7 -52 6 -56 -12 -51 -10 3 -39 7 -64 8 -56 3 -55 -5 8 -79 l46 -54
-24 -20 c-65 -52 -90 -79 -85 -88 3 -6 25 -10 48 -11 23 -1 52 -4 63 -7 l21
-7 -20 -68 c-11 -37 -17 -70 -14 -73 3 -4 36 10 72 30 36 20 69 36 73 36 5 0
18 -20 30 -45 12 -25 26 -45 32 -45 6 0 20 20 32 45 14 29 29 45 40 45 24 0
23 17 -1 29 -21 12 -28 6 -56 -49 l-18 -34 -24 47 -24 48 -64 -36 -63 -36 19
63 c22 73 18 78 -53 78 -27 0 -48 3 -47 8 0 4 20 23 44 42 24 19 44 39 44 44
1 6 -17 31 -39 57 -22 26 -40 49 -40 52 0 2 25 2 57 -1 l56 -5 -6 47 c-4 25
-4 46 -1 46 2 0 22 -9 44 -20 22 -11 43 -20 48 -20 5 0 17 18 27 40 10 22 21
40 25 40 4 0 15 -18 25 -40 21 -46 30 -48 86 -19 23 11 43 18 46 16 2 -3 -1
-24 -7 -46 -6 -23 -8 -46 -5 -51 3 -6 30 -10 60 -10 30 0 56 -4 59 -8 3 -5
-15 -24 -39 -42 -25 -19 -45 -39 -45 -44 1 -6 24 -29 52 -51 l50 -40 -66 -3
c-36 -2 -66 -7 -66 -12 0 -9 8 -32 34 -92 14 -33 14 -37 1 -32 -9 4 -15 0 -15
-9 0 -14 56 -44 65 -35 3 3 -8 38 -25 78 -16 40 -30 74 -30 76 0 2 34 4 75 4
41 0 75 4 75 9 0 7 -57 58 -108 96 -10 9 0 21 49 59 71 55 67 66 -21 66 -79 0
-85 6 -66 68 8 29 11 54 7 57 -5 2 -36 -7 -70 -22 -33 -14 -62 -24 -64 -22 -1
2 -12 25 -25 52 -12 26 -26 47 -32 47 -5 0 -21 -22 -35 -50z" />
    <path d="M580 508 c-26 -16 -31 -23 -18 -26 20 -4 78 24 78 38 0 16 -23 11
-60 -12z" />
    <path
      d="M285 470 c-15 -29 -16 -30 -45 -15 -40 21 -43 20 -38 -20 4 -35 4
-35 -34 -35 -21 0 -38 -3 -38 -6 0 -3 12 -21 26 -39 l26 -35 -31 -26 c-37 -31
-32 -44 16 -44 33 0 35 -2 30 -27 -3 -16 -9 -36 -12 -45 -5 -12 -2 -18 8 -18
9 0 30 8 47 18 22 11 34 13 37 6 2 -6 10 -20 18 -30 15 -19 15 -19 30 0 8 10
16 24 18 30 3 7 19 3 47 -11 23 -13 46 -20 51 -17 5 3 2 21 -6 41 -19 46 -20
43 19 43 49 0 55 18 18 51 l-31 27 31 24 c39 30 30 48 -22 48 l-38 0 10 36 c5
20 7 39 4 42 -4 3 -22 -2 -41 -11 -20 -9 -37 -17 -39 -17 -2 0 -9 14 -16 30
-16 38 -25 38 -45 0z m40 -41 c7 -21 16 -21 58 -4 15 6 16 4 8 -18 -11 -29 -6
-37 24 -37 33 0 37 -10 12 -30 l-22 -18 24 -25 23 -26 -33 -3 c-34 -3 -35 -4
-21 -51 5 -18 3 -18 -26 -3 -30 15 -32 15 -46 -6 l-16 -22 -16 22 c-15 22 -17
22 -40 8 -32 -22 -34 -21 -27 19 5 34 5 35 -27 35 l-33 0 23 25 c22 23 22 25
6 50 -16 24 -16 25 9 25 21 0 25 5 25 30 0 27 2 30 19 20 28 -15 39 -13 46 10
8 26 22 26 30 -1z" />
    <path
      d="M6 171 c-8 -12 18 -84 31 -88 9 -3 63 75 63 91 0 10 -88 7 -94 -3z
m54 -25 c0 -11 -19 -15 -25 -6 -3 5 1 10 9 10 9 0 16 -2 16 -4z" />
    <path d="M560 141 c0 -13 63 -51 74 -44 5 4 -4 17 -20 30 -30 24 -54 30 -54
14z" />
    <path d="M430 106 c0 -9 5 -16 10 -16 6 0 10 4 10 9 0 6 -4 13 -10 16 -5 3
-10 -1 -10 -9z" />
    <path
      d="M367 53 c-2 -21 -2 -41 0 -45 6 -11 101 -10 107 1 6 9 -76 81 -92 81
-5 0 -12 -17 -15 -37z m51 -21 c2 -7 -3 -12 -12 -12 -9 0 -16 7 -16 16 0 17
22 14 28 -4z" />
    <path
      d="M182 45 c-14 -30 -15 -45 -4 -45 5 0 16 16 25 35 13 27 14 35 3 35
-7 0 -18 -11 -24 -25z" />
  </g>
</svg>