<?xml version="1.0" standalone="no"?>
<!DOCTYPE svg PUBLIC "-//W3C//DTD SVG 20010904//EN"
 "http://www.w3.org/TR/2001/REC-SVG-20010904/DTD/svg10.dtd">
<svg version="1.0" xmlns="http://www.w3.org/2000/svg"
 width="512.000000pt" height="512.000000pt" viewBox="0 0 512.000000 512.000000"
 preserveAspectRatio="xMidYMid meet">

<g transform="translate(0.000000,512.000000) scale(0.100000,-0.100000)"
fill="#000000" stroke="none">
<path d="M1057 5110 c-401 -64 -720 -382 -897 -896 -110 -318 -155 -615 -155
-1014 0 -480 78 -881 239 -1225 91 -194 251 -399 401 -512 79 -60 219 -127
325 -155 120 -31 347 -31 465 0 305 83 510 305 575 622 55 271 -4 550 -163
772 l-53 74 42 63 c24 34 53 96 65 136 l23 73 26 -13 c125 -66 189 -272 221
-721 8 -107 11 -498 10 -1192 l-2 -1033 21 -29 c42 -59 110 -75 167 -40 69 42
65 -22 71 1059 5 999 0 1244 -34 1511 -30 237 -101 446 -189 550 -55 66 -139
125 -215 151 l-68 23 -20 80 c-20 79 -55 165 -88 217 -17 26 -16 27 40 113
203 304 221 689 49 1011 -87 163 -277 304 -478 356 -92 23 -287 33 -378 19z
m308 -265 c210 -54 354 -210 396 -429 15 -79 12 -233 -6 -311 -22 -95 -93
-238 -152 -304 -26 -30 -85 -78 -130 -108 -46 -29 -83 -57 -83 -62 0 -5 29
-23 64 -40 87 -44 137 -89 173 -158 58 -109 70 -260 31 -379 -32 -97 -87 -153
-204 -210 -52 -25 -94 -51 -94 -58 0 -7 41 -37 91 -67 117 -69 186 -143 244
-264 55 -113 76 -204 76 -325 -1 -195 -51 -329 -166 -444 -97 -97 -231 -146
-401 -146 -481 0 -800 428 -921 1235 -26 172 -26 678 0 850 105 697 360 1115
741 1215 90 24 258 26 341 5z"/>
<path d="M3753 5106 c-345 -66 -573 -292 -643 -636 -53 -259 0 -527 146 -746
56 -86 57 -87 40 -113 -33 -52 -68 -138 -88 -217 l-20 -80 -68 -23 c-76 -26
-160 -85 -215 -151 -88 -104 -159 -313 -189 -550 -34 -267 -39 -512 -33 -1511
6 -1080 2 -1018 70 -1059 56 -35 122 -20 167 37 l21 27 -2 1035 c-1 1040 3
1216 36 1467 16 121 53 260 86 327 25 49 73 103 110 123 27 13 27 13 39 -34
13 -54 60 -150 95 -196 l23 -31 -49 -65 c-251 -332 -252 -837 -2 -1145 98
-120 245 -213 408 -257 65 -17 109 -21 230 -22 177 0 265 18 410 88 276 132
499 418 635 812 110 318 155 615 155 1014 0 480 -78 881 -239 1225 -91 194
-251 399 -401 512 -78 59 -219 127 -320 153 -104 27 -302 35 -402 16z m339
-265 c384 -99 640 -516 745 -1216 26 -172 26 -678 0 -850 -83 -550 -250 -911
-512 -1105 -121 -90 -248 -130 -409 -130 -170 0 -304 49 -401 146 -115 115
-165 249 -166 444 0 121 21 212 76 325 58 121 127 195 244 264 50 30 91 60 91
67 0 7 -42 33 -94 58 -117 57 -172 113 -204 210 -39 119 -27 270 31 379 36 69
86 114 173 158 35 17 64 35 64 40 0 5 -37 33 -83 62 -45 30 -104 78 -130 108
-59 66 -130 209 -152 304 -18 78 -21 232 -6 311 42 217 185 374 391 428 82 22
251 20 342 -3z"/>
</g>
</svg>
