<?xml version="1.0" standalone="no"?>
<!DOCTYPE svg PUBLIC "-//W3C//DTD SVG 20010904//EN"
 "http://www.w3.org/TR/2001/REC-SVG-20010904/DTD/svg10.dtd">
<svg version="1.0" xmlns="http://www.w3.org/2000/svg"
 width="512.000000pt" height="512.000000pt" viewBox="0 0 512.000000 512.000000"
 preserveAspectRatio="xMidYMid meet">

<g transform="translate(0.000000,512.000000) scale(0.100000,-0.100000)"
fill="#000000" stroke="none">
<path d="M1440 4299 c-519 -31 -923 -240 -1164 -603 -175 -262 -291 -671 -272
-957 15 -237 71 -461 251 -1009 51 -157 112 -346 135 -420 95 -305 198 -447
354 -484 56 -14 161 -8 213 12 120 46 214 123 611 508 290 281 446 419 555
493 57 39 195 104 366 172 149 60 181 87 181 153 0 77 -69 129 -142 107 -60
-17 -467 -198 -521 -231 -98 -59 -251 -190 -461 -393 -395 -383 -581 -548
-653 -582 -46 -22 -106 -15 -139 16 -52 49 -78 112 -159 379 -25 85 -84 272
-130 415 -179 559 -216 717 -216 930 0 255 101 578 247 788 141 202 370 355
632 422 193 48 301 58 592 51 146 -3 312 -10 370 -16 58 -5 257 -21 443 -34
372 -28 378 -29 432 -100 50 -66 69 -125 68 -216 -1 -146 -34 -222 -151 -354
-116 -131 -166 -271 -165 -461 0 -100 5 -135 27 -208 51 -171 130 -289 238
-358 74 -48 98 -44 303 48 1090 490 1566 801 1762 1153 50 90 67 155 68 255 0
112 -24 173 -96 240 -159 148 -511 205 -1271 205 l-306 0 -31 -31 c-26 -26
-31 -38 -31 -80 0 -40 5 -55 29 -81 l29 -33 366 -7 c401 -7 601 -19 776 -48
250 -41 327 -96 300 -216 -46 -205 -302 -436 -776 -699 -342 -191 -1024 -506
-1053 -488 -27 16 -80 114 -103 188 -15 50 -21 96 -21 160 0 146 32 224 142
349 71 79 99 126 132 218 49 133 56 310 18 428 -39 119 -135 242 -240 305
l-58 36 -343 24 c-189 14 -392 29 -453 35 -60 5 -182 12 -270 15 -88 3 -189 7
-225 9 -36 1 -121 -1 -190 -5z"/>
</g>
</svg>
