<svg width="57" height="26" viewBox="0 0 57 26" fill="none" xmlns="http://www.w3.org/2000/svg">
<path d="M1.42994 25V8.305H6.00494V25H1.42994ZM3.48494 5.89C2.74494 5.89 2.11994 5.66 1.60994 5.2C1.09994 4.74 0.844939 4.14 0.844939 3.4C0.844939 2.9 0.979939 2.445 1.24994 2.035C1.52994 1.615 1.88994 1.28 2.32994 1.03C2.77994 0.779999 3.25994 0.655 3.76994 0.655C4.58994 0.655 5.22994 0.889999 5.68994 1.36C6.15994 1.82 6.39494 2.415 6.39494 3.145C6.39494 3.905 6.10494 4.555 5.52494 5.095C4.95494 5.625 4.27494 5.89 3.48494 5.89ZM15.9935 25.24C14.5335 25.24 13.2935 25.005 12.2735 24.535C11.2535 24.055 10.4285 23.4 9.79853 22.57C9.17853 21.74 8.72853 20.79 8.44853 19.72C8.16853 18.64 8.03353 17.5 8.04353 16.3C8.07353 14.52 8.44353 13.02 9.15353 11.8C9.87353 10.58 10.8485 9.655 12.0785 9.025C13.3185 8.395 14.7235 8.08 16.2935 8.08C18.2535 8.08 19.8185 8.49 20.9885 9.31C22.1585 10.13 22.9985 11.22 23.5085 12.58C24.0185 13.93 24.2585 15.4 24.2285 16.99C24.2085 18.78 23.8435 20.29 23.1335 21.52C22.4235 22.74 21.4535 23.665 20.2235 24.295C18.9935 24.925 17.5835 25.24 15.9935 25.24ZM16.1135 22.045C17.3035 22.055 18.1685 21.61 18.7085 20.71C19.2485 19.81 19.5185 18.505 19.5185 16.795C19.5185 15.785 19.4085 14.865 19.1885 14.035C18.9685 13.205 18.6135 12.54 18.1235 12.04C17.6435 11.54 17.0035 11.285 16.2035 11.275C15.0035 11.265 14.1335 11.705 13.5935 12.595C13.0535 13.475 12.7835 14.75 12.7835 16.42C12.7835 17.44 12.8935 18.38 13.1135 19.24C13.3335 20.09 13.6835 20.77 14.1635 21.28C14.6535 21.79 15.3035 22.045 16.1135 22.045ZM26.1713 25V0.624998H30.7613V25H26.1713ZM33.8705 25V0.624998H38.4605V25H33.8705ZM48.3197 25.24C46.8597 25.24 45.6197 25.005 44.5997 24.535C43.5797 24.055 42.7547 23.4 42.1247 22.57C41.5047 21.74 41.0547 20.79 40.7747 19.72C40.4947 18.64 40.3597 17.5 40.3697 16.3C40.3997 14.52 40.7697 13.02 41.4797 11.8C42.1997 10.58 43.1747 9.655 44.4047 9.025C45.6447 8.395 47.0497 8.08 48.6197 8.08C50.5797 8.08 52.1447 8.49 53.3147 9.31C54.4847 10.13 55.3247 11.22 55.8347 12.58C56.3447 13.93 56.5847 15.4 56.5547 16.99C56.5347 18.78 56.1697 20.29 55.4597 21.52C54.7497 22.74 53.7797 23.665 52.5497 24.295C51.3197 24.925 49.9097 25.24 48.3197 25.24ZM48.4397 22.045C49.6297 22.055 50.4947 21.61 51.0347 20.71C51.5747 19.81 51.8447 18.505 51.8447 16.795C51.8447 15.785 51.7347 14.865 51.5147 14.035C51.2947 13.205 50.9397 12.54 50.4497 12.04C49.9697 11.54 49.3297 11.285 48.5297 11.275C47.3297 11.265 46.4597 11.705 45.9197 12.595C45.3797 13.475 45.1097 14.75 45.1097 16.42C45.1097 17.44 45.2197 18.38 45.4397 19.24C45.6597 20.09 46.0097 20.77 46.4897 21.28C46.9797 21.79 47.6297 22.045 48.4397 22.045Z" fill="#FF6F61"/>
</svg>
