<?xml version="1.0" standalone="no"?>
<!DOCTYPE svg PUBLIC "-//W3C//DTD SVG 20010904//EN"
 "http://www.w3.org/TR/2001/REC-SVG-20010904/DTD/svg10.dtd">
<svg version="1.0" xmlns="http://www.w3.org/2000/svg"
 width="512.000000pt" height="512.000000pt" viewBox="0 0 512.000000 512.000000"
 preserveAspectRatio="xMidYMid meet">

<g transform="translate(0.000000,512.000000) scale(0.100000,-0.100000)"
fill="#000000" stroke="none">
<path d="M1703 4995 c-58 -25 -63 -49 -63 -290 0 -219 7 -269 41 -291 8 -5 70
-11 139 -14 l125 -5 0 -149 0 -148 -78 -29 c-953 -347 -1508 -1341 -1302
-2333 82 -396 281 -754 576 -1041 155 -150 279 -243 443 -331 l81 -44 -730 0
c-675 0 -733 -1 -765 -18 -75 -37 -73 -145 4 -177 31 -13 345 -15 2388 -15
2220 0 2355 1 2388 18 75 37 73 145 -4 177 -30 13 -147 15 -763 15 l-728 0 81
44 c175 94 327 211 479 367 61 63 131 141 156 174 563 738 569 1730 15 2474
-30 41 -53 78 -51 82 3 3 83 70 178 147 l173 140 80 -78 c44 -43 92 -82 107
-85 67 -17 127 29 127 97 0 42 -2 44 -233 275 -222 223 -234 233 -271 233 -30
0 -45 -7 -72 -34 -58 -58 -48 -94 53 -197 l65 -67 -176 -141 -177 -142 -67 59
c-201 177 -408 302 -647 393 l-100 38 0 148 0 148 125 5 c69 3 131 9 139 14
34 22 41 72 41 291 0 243 -5 266 -65 291 -50 21 -1664 20 -1712 -1z m1567
-295 l0 -100 -710 0 -710 0 0 100 0 100 710 0 710 0 0 -100z m-302 -429 l3
-123 -23 5 c-183 43 -593 43 -775 0 -23 -5 -23 -5 -23 114 0 66 3 123 7 126 4
4 187 6 407 5 l401 -3 3 -124z m-248 -292 c648 -59 1208 -447 1491 -1033 304
-629 223 -1372 -208 -1924 -274 -350 -685 -598 -1123 -677 -127 -23 -402 -31
-527 -15 -721 88 -1318 577 -1536 1255 -71 219 -81 292 -82 560 0 212 3 253
23 353 147 728 691 1284 1413 1446 189 42 357 53 549 35z"/>
<path d="M2360 3773 c-85 -11 -273 -58 -360 -90 -544 -201 -940 -674 -1046
-1248 -28 -150 -26 -451 5 -595 93 -439 338 -804 701 -1046 477 -317 1081
-360 1600 -113 813 387 1158 1361 769 2175 -79 166 -177 303 -319 445 -230
231 -483 371 -805 445 -106 24 -143 27 -315 30 -107 1 -211 0 -230 -3z m460
-218 c193 -38 393 -121 548 -227 102 -71 259 -223 337 -327 205 -272 311 -651
276 -981 -71 -656 -545 -1164 -1191 -1276 -146 -25 -419 -15 -560 20 -330 84
-607 265 -804 526 -373 495 -391 1141 -48 1660 70 106 236 278 340 353 194
140 430 234 664 266 100 13 335 6 438 -14z"/>
<path d="M2085 2859 c-84 -10 -164 -43 -233 -93 -75 -56 -115 -104 -158 -192
-68 -142 -66 -306 7 -450 39 -79 821 -952 870 -972 64 -27 69 -22 503 459 343
382 411 462 441 522 165 336 -78 727 -452 728 -149 1 -254 -43 -372 -156 -43
-41 -82 -75 -86 -75 -5 0 -43 33 -84 74 -132 127 -269 176 -436 155z m199
-228 c29 -14 97 -70 167 -138 161 -155 157 -155 340 23 104 101 122 114 174
129 202 59 396 -83 396 -290 0 -59 -14 -112 -40 -156 -9 -15 -173 -201 -365
-414 l-349 -387 -32 34 c-149 154 -678 755 -696 790 -15 29 -24 67 -27 119 -4
68 -1 84 22 135 40 86 95 137 185 171 55 20 166 12 225 -16z"/>
<path d="M4090 4600 l0 -100 100 0 100 0 0 100 0 100 -100 0 -100 0 0 -100z"/>
<path d="M745 4587 c-94 -32 -158 -88 -197 -172 -32 -71 -32 -181 2 -250 75
-155 264 -219 416 -142 135 69 199 235 144 379 -26 69 -92 141 -155 169 -57
25 -158 33 -210 16z m136 -207 c51 -28 60 -111 17 -157 -42 -45 -130 -36 -158
16 -20 38 -12 96 16 125 29 28 87 36 125 16z"/>
<path d="M420 3480 l0 -100 100 0 100 0 0 100 0 100 -100 0 -100 0 0 -100z"/>
<path d="M4520 1021 c-139 -46 -224 -158 -224 -296 0 -119 60 -215 169 -273
43 -23 62 -27 135 -27 76 0 91 3 139 30 106 58 161 151 161 270 0 119 -56 212
-161 269 -41 23 -68 30 -123 32 -39 2 -82 0 -96 -5z m153 -231 c37 -41 37 -89
-2 -132 -24 -27 -36 -33 -71 -33 -82 0 -129 96 -79 159 43 54 105 57 152 6z"/>
<path d="M420 620 l0 -100 100 0 100 0 0 100 0 100 -100 0 -100 0 0 -100z"/>
</g>
</svg>
