<svg width="512" height="512" viewBox="0 0 30 34" fill="none" xmlns="http://www.w3.org/2000/svg">
  <mask id="path-1-inside-1_2581_4272" fill="white">
    <path
      d="M16.7085 0.333728C9.50913 0.333728 3.65198 6.19101 3.65198 13.3902V14.0256L0.129728 20.6039C-0.0521629 20.9437 -0.0419756 21.3534 0.155203 21.684C0.353398 22.0142 0.710567 22.2165 1.09524 22.2165H3.65202V26.261C3.65202 28.5772 5.53666 30.4608 7.85187 30.4608H12.5994V32.5713C12.5994 33.1761 13.0901 33.6667 13.6949 33.6667C14.2997 33.6667 14.7903 33.1761 14.7903 32.5713V29.3655C14.7903 28.7607 14.2997 28.27 13.6949 28.27H7.85127C6.74309 28.27 5.84285 27.3692 5.84285 26.2616V21.1217C5.84285 20.5169 5.35219 20.0263 4.74741 20.0263L2.92537 20.0252L5.7134 14.817C5.799 14.6575 5.84333 14.4802 5.84333 14.2998V13.3899C5.84333 7.399 10.7173 2.52454 16.7086 2.52454C22.6995 2.52454 27.574 7.39848 27.574 13.3899C27.574 16.2727 26.4586 18.9777 24.4293 21.0224C24.1654 21.2246 23.9998 21.5431 23.9998 21.8921V32.5372C23.9998 33.142 24.4904 33.6327 25.0952 33.6327C25.7 33.6327 26.1907 33.142 26.1907 32.5372L26.1912 22.3532C28.4992 19.9223 29.7653 16.7573 29.7653 13.3899C29.7653 6.19001 23.9081 0.333374 16.7089 0.333374L16.7085 0.333728ZM26.1283 12.2374C26.5094 8.73201 23.2628 4.58054 17.8187 3.98641C14.8957 3.66644 9.35326 5.18376 8.35766 9.0234C8.06164 10.1667 8.15538 11.1221 8.63737 11.8619C9.43374 13.0847 11.0041 13.343 12.3904 13.5718C12.8464 13.6477 13.2769 13.718 13.6652 13.8158C14.1431 13.9366 14.5914 14.2897 15.159 14.737C16.0573 15.4463 17.1767 16.3277 19.0777 16.8576C19.1001 16.8642 19.122 16.8663 19.1449 16.8729C18.8311 17.5363 18.6695 18.2949 18.694 19.098C18.7123 19.6921 19.1989 20.1598 19.7884 20.1598C19.8001 20.1598 19.8108 20.1598 19.8226 20.1593C20.4273 20.1409 20.9027 19.6355 20.8839 19.0307C20.8721 18.6466 20.9328 17.7488 21.6145 17.1603C24.1294 16.9876 25.8058 15.1773 26.1282 12.2375L26.1283 12.2374ZM21.2065 14.9852C20.7495 14.9847 20.2308 14.9047 19.6648 14.7462C18.1872 14.335 17.3362 13.6645 16.5145 13.0164C15.8032 12.4554 15.1312 11.9265 14.2014 11.6922C13.7245 11.5715 13.2272 11.4899 12.7463 11.4104C11.8536 11.2637 10.7434 11.0803 10.4738 10.6671C10.3454 10.4699 10.348 10.0822 10.4794 9.57367C11.0608 7.33033 14.6355 6.13555 16.9935 6.13555C17.2018 6.13555 17.3995 6.14574 17.583 6.16561C22.0402 6.65118 24.1765 9.92421 23.9508 12.0005C23.803 13.3548 23.2109 14.9658 21.2458 14.9826C21.2321 14.9821 21.2198 14.9851 21.2066 14.9851L21.2065 14.9852Z" />
  </mask>
  <path
    d="M16.7085 0.333728C9.50913 0.333728 3.65198 6.19101 3.65198 13.3902V14.0256L0.129728 20.6039C-0.0521629 20.9437 -0.0419756 21.3534 0.155203 21.684C0.353398 22.0142 0.710567 22.2165 1.09524 22.2165H3.65202V26.261C3.65202 28.5772 5.53666 30.4608 7.85187 30.4608H12.5994V32.5713C12.5994 33.1761 13.0901 33.6667 13.6949 33.6667C14.2997 33.6667 14.7903 33.1761 14.7903 32.5713V29.3655C14.7903 28.7607 14.2997 28.27 13.6949 28.27H7.85127C6.74309 28.27 5.84285 27.3692 5.84285 26.2616V21.1217C5.84285 20.5169 5.35219 20.0263 4.74741 20.0263L2.92537 20.0252L5.7134 14.817C5.799 14.6575 5.84333 14.4802 5.84333 14.2998V13.3899C5.84333 7.399 10.7173 2.52454 16.7086 2.52454C22.6995 2.52454 27.574 7.39848 27.574 13.3899C27.574 16.2727 26.4586 18.9777 24.4293 21.0224C24.1654 21.2246 23.9998 21.5431 23.9998 21.8921V32.5372C23.9998 33.142 24.4904 33.6327 25.0952 33.6327C25.7 33.6327 26.1907 33.142 26.1907 32.5372L26.1912 22.3532C28.4992 19.9223 29.7653 16.7573 29.7653 13.3899C29.7653 6.19001 23.9081 0.333374 16.7089 0.333374L16.7085 0.333728ZM26.1283 12.2374C26.5094 8.73201 23.2628 4.58054 17.8187 3.98641C14.8957 3.66644 9.35326 5.18376 8.35766 9.0234C8.06164 10.1667 8.15538 11.1221 8.63737 11.8619C9.43374 13.0847 11.0041 13.343 12.3904 13.5718C12.8464 13.6477 13.2769 13.718 13.6652 13.8158C14.1431 13.9366 14.5914 14.2897 15.159 14.737C16.0573 15.4463 17.1767 16.3277 19.0777 16.8576C19.1001 16.8642 19.122 16.8663 19.1449 16.8729C18.8311 17.5363 18.6695 18.2949 18.694 19.098C18.7123 19.6921 19.1989 20.1598 19.7884 20.1598C19.8001 20.1598 19.8108 20.1598 19.8226 20.1593C20.4273 20.1409 20.9027 19.6355 20.8839 19.0307C20.8721 18.6466 20.9328 17.7488 21.6145 17.1603C24.1294 16.9876 25.8058 15.1773 26.1282 12.2375L26.1283 12.2374ZM21.2065 14.9852C20.7495 14.9847 20.2308 14.9047 19.6648 14.7462C18.1872 14.335 17.3362 13.6645 16.5145 13.0164C15.8032 12.4554 15.1312 11.9265 14.2014 11.6922C13.7245 11.5715 13.2272 11.4899 12.7463 11.4104C11.8536 11.2637 10.7434 11.0803 10.4738 10.6671C10.3454 10.4699 10.348 10.0822 10.4794 9.57367C11.0608 7.33033 14.6355 6.13555 16.9935 6.13555C17.2018 6.13555 17.3995 6.14574 17.583 6.16561C22.0402 6.65118 24.1765 9.92421 23.9508 12.0005C23.803 13.3548 23.2109 14.9658 21.2458 14.9826C21.2321 14.9821 21.2198 14.9851 21.2066 14.9851L21.2065 14.9852Z"
    fill="#222222" stroke="#222222" stroke-width="2.66667" mask="url(#path-1-inside-1_2581_4272)" />
</svg>