<svg width="512" height="512" viewBox="0 0 34 26" fill="none" xmlns="http://www.w3.org/2000/svg">
  <mask id="path-1-inside-1_601_608" fill="white">
    <path
      d="M33.6668 11.4629C33.6668 8.3438 31.3544 5.75329 28.3547 5.3177C27.9222 2.91034 25.8124 1.07705 23.2814 1.07705C22.3085 1.07705 21.3769 1.33278 20.5752 1.79063C19.1036 0.765908 17.3656 0.328984 15.6024 0.560616C14.058 0.763654 12.6277 1.48314 11.6288 2.53379C10.4742 2.10772 8.97341 2.14634 7.62024 2.68368C5.96824 3.33958 4.81183 4.59965 4.30438 6.26293C3.49677 6.5132 2.76319 6.927 2.15178 7.49748C0.979901 8.59125 0.333496 10.1357 0.333496 11.8462C0.333496 13.5918 1.13384 15.2688 2.47376 16.333C3.46897 17.1224 4.68264 17.5299 5.98987 17.5299C6.29647 17.5299 6.60897 17.4994 6.92512 17.4545C8.04978 18.8603 9.7054 19.706 11.5673 19.706C12.661 19.706 13.5364 19.572 14.274 19.3549C16.3956 21.2168 19.1282 21.2459 20.4823 21.1163C21.7197 23.8889 23.7968 25.1739 23.8912 25.2311C24.0493 25.327 24.2232 25.3733 24.3954 25.3733C24.7238 25.3733 25.044 25.2066 25.2284 24.9059C25.5096 24.4476 25.3652 23.8471 24.9082 23.5637C24.8919 23.5528 23.403 22.6117 22.4127 20.6295C23.3212 20.2484 23.8562 19.801 23.9308 19.7356C24.3336 19.3767 24.3704 18.7599 24.0116 18.357C23.6528 17.9528 23.0359 17.9169 22.6331 18.2757C22.6267 18.2816 21.9749 18.8285 20.8853 19.0902C20.7635 19.1142 18.3202 19.5771 16.3067 18.4097C16.6097 18.2176 16.8995 18.0177 17.1838 17.8192C18.0823 17.1897 19.0112 16.5383 20.5764 16.076C21.0933 15.9238 21.389 15.3805 21.2369 14.8627C21.0847 14.3458 20.5401 14.0469 20.0236 14.2022C18.1522 14.755 17.0425 15.5326 16.0632 16.219C14.7941 17.1093 13.8761 17.7521 11.5673 17.7521C9.59366 17.7521 8.0048 16.3867 7.51886 14.2741C7.39758 13.7481 6.87569 13.4179 6.34745 13.541C5.82191 13.6623 5.49397 14.1864 5.61478 14.7119C5.68337 15.0104 5.77285 15.2956 5.87415 15.5736C4.8744 15.5482 4.15447 15.173 3.68795 14.8019C2.81039 14.1065 2.28665 13.0009 2.28665 11.8463C2.28665 10.6834 2.71179 9.64645 3.48353 8.92656C4.25525 8.20752 5.29902 7.87276 6.49916 7.95452C7.0474 7.99812 7.50389 7.58614 7.54159 7.04743C7.57929 6.50873 7.17321 6.0427 6.63451 6.00545C6.60453 6.00273 6.57546 6.005 6.54457 6.00273C7.03014 5.1874 7.73959 4.73771 8.34053 4.49921C9.55102 4.0191 10.7784 4.169 11.3188 4.55463C11.5319 4.70634 11.798 4.76539 12.0542 4.72178C12.3122 4.67682 12.5411 4.52965 12.6906 4.3148C13.3569 3.34958 14.5397 2.67 15.8561 2.49744C16.9649 2.35028 18.0636 2.57693 19.037 3.13108C18.9034 3.30777 18.779 3.49265 18.6686 3.68705C18.3002 4.33567 18.104 5.04067 18.0577 5.7551C17.7679 5.97268 17.2741 6.27973 16.754 6.32697C16.2167 6.37603 15.8202 6.8516 15.8706 7.38894C15.916 7.8954 16.3425 8.27649 16.8422 8.27649C16.8717 8.27649 16.9021 8.27513 16.9321 8.2724C17.4785 8.22289 17.9718 8.04666 18.3887 7.83862C18.4905 8.09798 18.6077 8.35416 18.7548 8.60171C19.0315 9.06593 19.6306 9.21628 20.0944 8.94102C20.5582 8.66576 20.709 8.06528 20.4337 7.60239C19.8673 6.6517 19.8437 5.57608 20.3678 4.65176C20.9447 3.63657 22.0349 3.03104 23.2825 3.03104C25.0472 3.03104 26.4826 4.46641 26.4826 6.23016C26.4826 6.76932 26.92 7.20674 27.4592 7.20674C29.8062 7.20674 31.7148 9.11584 31.7148 11.4624C31.7148 13.8085 29.8057 15.718 27.4592 15.718C26.9827 15.718 26.5757 16.0623 26.4962 16.5334C25.9666 19.698 27.1571 23.2123 27.208 23.3603C27.3474 23.7646 27.7263 24.0194 28.1314 24.0194C28.2364 24.0194 28.3431 24.0026 28.4485 23.9658C28.9586 23.7905 29.2293 23.2359 29.0553 22.7258C29.0453 22.6963 28.1664 20.0859 28.3358 17.6104C31.3437 17.1838 33.6666 14.5894 33.6666 11.4629L33.6668 11.4629ZM14.7909 12.167C15.3106 12.3082 15.8456 12.0048 15.9905 11.4865C16.1345 10.9664 15.8302 10.4282 15.3105 10.2833C15.1588 10.2415 14.066 9.96985 12.9904 10.3078C12.2995 9.46702 11.4506 8.81474 10.9423 8.60311C10.4449 8.3969 9.87489 8.63173 9.66776 9.12774C9.45926 9.6251 9.69455 10.1974 10.1906 10.4068C10.5898 10.5749 11.9266 11.7309 12.1233 12.6893C12.2182 13.1517 12.6252 13.4701 13.0794 13.4701C13.1444 13.4701 13.2102 13.4637 13.2765 13.4506C13.8053 13.342 14.145 12.826 14.0369 12.2973C14.0233 12.2296 13.9929 12.1638 13.9742 12.0961C14.3117 12.0756 14.6447 12.1283 14.7909 12.1669L14.7909 12.167ZM26.9156 12.44C27.4334 12.44 27.8649 12.033 27.8903 11.5102C27.9158 10.9715 27.5001 10.5141 26.9619 10.4877C26.3146 10.4564 25.5742 10.0616 25.3762 9.6424C25.1459 9.15457 24.5654 8.94608 24.0766 9.17546C23.5888 9.4053 23.3794 9.98671 23.6092 10.475C24.1811 11.6883 25.6813 12.381 26.8678 12.4382C26.8832 12.4391 26.8996 12.44 26.9155 12.44L26.9156 12.44Z" />
  </mask>
  <path
    d="M33.6668 11.4629C33.6668 8.3438 31.3544 5.75329 28.3547 5.3177C27.9222 2.91034 25.8124 1.07705 23.2814 1.07705C22.3085 1.07705 21.3769 1.33278 20.5752 1.79063C19.1036 0.765908 17.3656 0.328984 15.6024 0.560616C14.058 0.763654 12.6277 1.48314 11.6288 2.53379C10.4742 2.10772 8.97341 2.14634 7.62024 2.68368C5.96824 3.33958 4.81183 4.59965 4.30438 6.26293C3.49677 6.5132 2.76319 6.927 2.15178 7.49748C0.979901 8.59125 0.333496 10.1357 0.333496 11.8462C0.333496 13.5918 1.13384 15.2688 2.47376 16.333C3.46897 17.1224 4.68264 17.5299 5.98987 17.5299C6.29647 17.5299 6.60897 17.4994 6.92512 17.4545C8.04978 18.8603 9.7054 19.706 11.5673 19.706C12.661 19.706 13.5364 19.572 14.274 19.3549C16.3956 21.2168 19.1282 21.2459 20.4823 21.1163C21.7197 23.8889 23.7968 25.1739 23.8912 25.2311C24.0493 25.327 24.2232 25.3733 24.3954 25.3733C24.7238 25.3733 25.044 25.2066 25.2284 24.9059C25.5096 24.4476 25.3652 23.8471 24.9082 23.5637C24.8919 23.5528 23.403 22.6117 22.4127 20.6295C23.3212 20.2484 23.8562 19.801 23.9308 19.7356C24.3336 19.3767 24.3704 18.7599 24.0116 18.357C23.6528 17.9528 23.0359 17.9169 22.6331 18.2757C22.6267 18.2816 21.9749 18.8285 20.8853 19.0902C20.7635 19.1142 18.3202 19.5771 16.3067 18.4097C16.6097 18.2176 16.8995 18.0177 17.1838 17.8192C18.0823 17.1897 19.0112 16.5383 20.5764 16.076C21.0933 15.9238 21.389 15.3805 21.2369 14.8627C21.0847 14.3458 20.5401 14.0469 20.0236 14.2022C18.1522 14.755 17.0425 15.5326 16.0632 16.219C14.7941 17.1093 13.8761 17.7521 11.5673 17.7521C9.59366 17.7521 8.0048 16.3867 7.51886 14.2741C7.39758 13.7481 6.87569 13.4179 6.34745 13.541C5.82191 13.6623 5.49397 14.1864 5.61478 14.7119C5.68337 15.0104 5.77285 15.2956 5.87415 15.5736C4.8744 15.5482 4.15447 15.173 3.68795 14.8019C2.81039 14.1065 2.28665 13.0009 2.28665 11.8463C2.28665 10.6834 2.71179 9.64645 3.48353 8.92656C4.25525 8.20752 5.29902 7.87276 6.49916 7.95452C7.0474 7.99812 7.50389 7.58614 7.54159 7.04743C7.57929 6.50873 7.17321 6.0427 6.63451 6.00545C6.60453 6.00273 6.57546 6.005 6.54457 6.00273C7.03014 5.1874 7.73959 4.73771 8.34053 4.49921C9.55102 4.0191 10.7784 4.169 11.3188 4.55463C11.5319 4.70634 11.798 4.76539 12.0542 4.72178C12.3122 4.67682 12.5411 4.52965 12.6906 4.3148C13.3569 3.34958 14.5397 2.67 15.8561 2.49744C16.9649 2.35028 18.0636 2.57693 19.037 3.13108C18.9034 3.30777 18.779 3.49265 18.6686 3.68705C18.3002 4.33567 18.104 5.04067 18.0577 5.7551C17.7679 5.97268 17.2741 6.27973 16.754 6.32697C16.2167 6.37603 15.8202 6.8516 15.8706 7.38894C15.916 7.8954 16.3425 8.27649 16.8422 8.27649C16.8717 8.27649 16.9021 8.27513 16.9321 8.2724C17.4785 8.22289 17.9718 8.04666 18.3887 7.83862C18.4905 8.09798 18.6077 8.35416 18.7548 8.60171C19.0315 9.06593 19.6306 9.21628 20.0944 8.94102C20.5582 8.66576 20.709 8.06528 20.4337 7.60239C19.8673 6.6517 19.8437 5.57608 20.3678 4.65176C20.9447 3.63657 22.0349 3.03104 23.2825 3.03104C25.0472 3.03104 26.4826 4.46641 26.4826 6.23016C26.4826 6.76932 26.92 7.20674 27.4592 7.20674C29.8062 7.20674 31.7148 9.11584 31.7148 11.4624C31.7148 13.8085 29.8057 15.718 27.4592 15.718C26.9827 15.718 26.5757 16.0623 26.4962 16.5334C25.9666 19.698 27.1571 23.2123 27.208 23.3603C27.3474 23.7646 27.7263 24.0194 28.1314 24.0194C28.2364 24.0194 28.3431 24.0026 28.4485 23.9658C28.9586 23.7905 29.2293 23.2359 29.0553 22.7258C29.0453 22.6963 28.1664 20.0859 28.3358 17.6104C31.3437 17.1838 33.6666 14.5894 33.6666 11.4629L33.6668 11.4629ZM14.7909 12.167C15.3106 12.3082 15.8456 12.0048 15.9905 11.4865C16.1345 10.9664 15.8302 10.4282 15.3105 10.2833C15.1588 10.2415 14.066 9.96985 12.9904 10.3078C12.2995 9.46702 11.4506 8.81474 10.9423 8.60311C10.4449 8.3969 9.87489 8.63173 9.66776 9.12774C9.45926 9.6251 9.69455 10.1974 10.1906 10.4068C10.5898 10.5749 11.9266 11.7309 12.1233 12.6893C12.2182 13.1517 12.6252 13.4701 13.0794 13.4701C13.1444 13.4701 13.2102 13.4637 13.2765 13.4506C13.8053 13.342 14.145 12.826 14.0369 12.2973C14.0233 12.2296 13.9929 12.1638 13.9742 12.0961C14.3117 12.0756 14.6447 12.1283 14.7909 12.1669L14.7909 12.167ZM26.9156 12.44C27.4334 12.44 27.8649 12.033 27.8903 11.5102C27.9158 10.9715 27.5001 10.5141 26.9619 10.4877C26.3146 10.4564 25.5742 10.0616 25.3762 9.6424C25.1459 9.15457 24.5654 8.94608 24.0766 9.17546C23.5888 9.4053 23.3794 9.98671 23.6092 10.475C24.1811 11.6883 25.6813 12.381 26.8678 12.4382C26.8832 12.4391 26.8996 12.44 26.9155 12.44L26.9156 12.44Z"
    fill="#222222" stroke="#222222" stroke-width="2.66667" mask="url(#path-1-inside-1_601_608)" />
</svg>