<svg version="1.0" xmlns="http://www.w3.org/2000/svg"
  width="512.000000pt" height="512.000000pt" viewBox="0 0 512.000000 512.000000"
  preserveAspectRatio="xMidYMid meet">

  <g transform="translate(0.000000,512.000000) scale(0.100000,-0.100000)"
    fill="#000000" stroke="none">
    <path
      d="M2151 4669 c-657 -99 -1224 -516 -1517 -1114 -100 -206 -165 -424
-194 -655 -14 -118 -12 -355 4 -480 14 -100 13 -106 -4 -125 -41 -44 -63 -115
-62 -200 1 -84 10 -126 85 -415 25 -96 50 -210 56 -253 25 -181 7 -380 -50
-542 -58 -166 -53 -186 59 -270 181 -135 367 -193 584 -182 142 7 205 24 343
92 173 85 274 181 251 240 -7 20 -9 20 128 -24 411 -133 835 -133 1239 0 66
21 121 39 122 39 1 0 5 -19 8 -41 7 -52 37 -84 148 -159 163 -109 334 -156
528 -147 209 10 391 82 544 218 65 56 68 83 24 207 -49 137 -67 244 -68 393
-1 157 17 262 87 522 80 295 83 401 12 506 l-30 45 12 75 c43 282 11 620 -86
912 -46 138 -151 352 -233 474 -334 500 -866 827 -1456 895 -141 16 -392 11
-534 -11z m487 -199 c504 -53 961 -313 1267 -720 259 -344 391 -798 355 -1215
-7 -71 -14 -132 -16 -135 -3 -2 -42 -12 -88 -21 -224 -45 -483 -258 -661 -543
-131 -210 -232 -497 -270 -767 -7 -44 -9 -47 -58 -67 -444 -184 -930 -191
-1374 -20 -82 31 -104 44 -107 61 -3 12 -14 74 -25 137 -48 271 -167 551 -321
759 -182 245 -410 412 -603 443 l-75 12 -6 41 c-26 174 -16 424 26 615 41 193
138 428 243 592 370 574 1041 899 1713 828z m-1876 -2314 c89 -32 175 -90 276
-190 189 -185 319 -421 393 -715 34 -135 61 -328 57 -408 l-3 -58 -68 -41
c-37 -23 -107 -55 -155 -70 -75 -25 -102 -29 -197 -29 -77 1 -128 6 -170 19
-64 20 -162 66 -206 97 l-27 19 20 62 c51 165 70 338 57 519 -11 141 -34 260
-96 479 -25 91 -48 195 -51 231 -4 58 -2 69 17 88 27 27 69 27 153 -3z m3534
10 c34 -25 24 -115 -39 -351 -31 -115 -63 -250 -72 -298 -36 -212 -29 -413 22
-606 14 -53 27 -105 30 -116 4 -16 -8 -28 -59 -58 -140 -83 -317 -115 -464
-82 -89 19 -223 80 -270 122 l-31 28 8 107 c29 377 149 702 356 958 169 210
432 359 519 296z" />
    <path
      d="M1595 3834 c-333 -70 -573 -328 -626 -674 -22 -143 10 -321 78 -437
150 -256 470 -341 752 -198 198 99 348 285 413 511 34 118 31 298 -5 410 -64
193 -213 335 -399 379 -59 14 -167 18 -213 9z m207 -230 c140 -45 243 -238
222 -413 -35 -290 -260 -521 -510 -521 -360 0 -463 502 -164 800 138 138 296
185 452 134z" />
    <path
      d="M3115 3830 c-193 -39 -351 -183 -416 -381 -20 -63 -24 -93 -24 -209
0 -160 14 -222 79 -355 213 -432 727 -567 1021 -269 67 67 125 171 151 269 23
89 21 260 -5 360 -60 230 -216 425 -418 525 -120 60 -272 83 -388 60z m176
-210 c152 -29 293 -143 374 -301 51 -99 68 -177 63 -289 -3 -81 -8 -105 -35
-162 -36 -76 -93 -136 -161 -170 -40 -19 -63 -23 -148 -23 -96 0 -103 1 -179
39 -106 52 -195 142 -253 254 -151 291 -51 600 211 651 59 12 68 12 128 1z" />
    <path
      d="M2357 2549 c-180 -42 -341 -233 -404 -478 -100 -395 45 -829 324
-962 120 -58 273 -51 391 18 139 82 251 262 297 478 23 107 23 313 0 420 -21
102 -63 206 -115 289 -45 72 -141 166 -198 195 -91 46 -203 62 -295 40z m184
-225 c81 -41 154 -141 196 -268 24 -73 27 -95 27 -236 1 -135 -2 -164 -22
-230 -34 -109 -78 -184 -139 -240 -106 -97 -214 -92 -318 15 -196 202 -199
673 -6 887 82 91 175 117 262 72z" />
  </g>
</svg>